<?xml version="1.0" encoding="UTF-8"?>
<svg xmlns="http://www.w3.org/2000/svg" id="Layer_1" data-name="Layer 1" viewBox="0 0 24 24">
  <path d="m.004,5.014C.004,4.462.451,4.014,1.004,4.014s1,.448,1,1-.448,1-1,1S.004,5.566.004,5.014Zm20,15c-.552,0-1,.448-1,1s.448,1,1,1,1-.448,1-1-.448-1-1-1ZM6.004,2.014c.552,0,1-.448,1-1S6.556.014,6.004.014s-1,.448-1,1,.448,1,1,1Zm17.496,8.499l-1.908,1.555.79,2.404c.189.569-.004,1.199-.48,1.566-.477.367-1.136.393-1.637.065l-2.248-1.463-2.208,1.477c-.235.157-.507.24-.789.24-.306,0-.608-.101-.851-.283-.479-.357-.682-.984-.501-1.559l.761-2.439-1.917-1.56c-.46-.39-.626-1.021-.421-1.575s.739-.928,1.33-.928h2.402l.853-2.288c.204-.551.738-.922,1.327-.922s1.122.371,1.328.922l.852,2.288h2.406c.592,0,1.126.373,1.33.929.203.558.035,1.188-.418,1.57Zm-.521-1.228c-.06-.163-.217-.272-.392-.272h-.001s-2.75,0-2.75,0c-.209,0-.396-.13-.469-.325l-.974-2.613c-.12-.324-.66-.325-.78,0l-.974,2.614c-.073.195-.26.325-.469.325h-2.75c-.174,0-.331.11-.391.273s-.011.348.122.461l2.171,1.767c.159.129.223.342.162.536l-.862,2.764c-.054.17.005.354.146.46.139.104.336.11.483.012l2.481-1.66c.167-.111.383-.112.551-.004l2.524,1.644c.148.097.341.09.482-.02.139-.107.196-.293.14-.46l-.897-2.733c-.064-.197,0-.413.159-.544l2.168-1.767c.127-.107.177-.293.117-.457ZM6.231,7.168c-.191.199-.185.516.015.707.097.093.222.139.346.139.131,0,.263-.052.361-.154.146-.151.293-.303.443-.452C12.827,1.978,19.526-.502,22.022,1.995c.764.764,1.092,1.964.948,3.471-.026.275.175.52.45.546.276.014.519-.176.545-.45.173-1.814-.254-3.292-1.236-4.273-2.981-2.979-10.026-.603-16.04,5.412-.155.155-.308.311-.458.468Zm9.306,10.476c-5.276,4.786-11.228,6.713-13.552,4.389-.994-.994-1.248-2.729-.713-4.885.066-.268-.097-.539-.365-.605-.267-.064-.54.097-.605.365-.622,2.51-.274,4.581.977,5.832.853.854,2.06,1.261,3.491,1.261,3.178,0,7.464-2.01,11.439-5.616.205-.186.22-.502.034-.706-.186-.205-.501-.22-.706-.034ZM.849,11.841l1.438-.542.548-1.456c.117-.351.41-.643.776-.765.312-.104.647-.082.944.066.296.147.518.401.623.716l.548,1.451,1.441.531c.642.221.989.921.773,1.564-.123.368-.416.66-.782.782l-1.447.533-.538,1.46c-.1.3-.321.554-.618.701-.174.087-.361.131-.55.131-.133,0-.266-.021-.395-.065-.365-.121-.658-.413-.781-.78l-.527-1.433-1.469-.554c-.348-.115-.641-.407-.764-.774-.216-.647.134-1.351.781-1.567Zm.167,1.25c.023.07.08.126.15.149l1.915.721.69,1.876c.028.085.084.141.155.164.083.03.15.004.183-.012.033-.017.093-.057.12-.138l.703-1.908,1.895-.697c.085-.029.141-.085.165-.156.042-.124-.026-.26-.151-.302l-.014-.005-1.876-.69-.715-1.897c-.034-.1-.093-.14-.126-.156-.022-.011-.059-.024-.106-.024-.023,0-.048.003-.075.012-.072.024-.128.08-.151.151l-.713,1.896-1.878.708c-.142.048-.21.184-.168.309Z"/>
</svg>
